<svg xmlns="http://www.w3.org/2000/svg" width="65" height="51" fill="none">
  <defs/>
  <path fill="#F24646" d="M50.785 7.585H5.9A5.906 5.906 0 000 13.528v23.087c0 3.195 2.53 5.944 5.901 5.944H19.11v7.035c0 .81.963 1.294 1.605.97l13.69-8.005h16.38a5.906 5.906 0 005.901-5.944V13.528c0-3.234-2.73-5.943-5.901-5.943z"/>
  <path fill="#272F3A" d="M28.72 31.351c-5.846.08-10.58-3.551-10.58-.807s4.817 5.085 10.58 5.004c5.848 0 10.582-2.26 10.582-5.004 0-2.744-4.734.807-10.581.807zM62.273 9.2C63.837 9.2 65 10.482 65 12.046s-1.283 2.728-2.848 2.728c-1.564 0-4.292-1.284-4.292-2.848 0-1.564 2.848-2.728 4.413-2.728zM58.261 3.343c1.043-1.043 2.848-1.043 3.891.12 1.043 1.164 1.043 2.848-.12 3.891-1.043 1.043-4.011 2.086-5.054 1.043-1.043-1.163.12-4.01 1.283-5.054zM49.959 3.464c-.401-1.444.521-2.969 1.925-3.37 1.404-.4 2.968.522 3.37 1.926.4 1.444-.121 4.532-1.565 4.933-1.524.401-3.49-2.045-3.73-3.49z"/>
  <path stroke="#272F3A" stroke-linecap="round" stroke-miterlimit="10" stroke-width="4" d="M31.548 25.083c0-2.968 2.447-5.575 5.576-5.575 3.128 0 5.535 2.446 5.535 5.575M14.582 25.324c0-2.969 2.446-5.576 5.575-5.576 3.128 0 5.575 2.447 5.575 5.576"/>
</svg>
