<svg xmlns="http://www.w3.org/2000/svg" width="162" height="126" fill="none">
  <path fill="#F6EFF5" d="M126.5 19.435H14.7c-7.9 0-14.7 6.3-14.7 14.7v57.1c0 7.9 6.3 14.7 14.7 14.7h32.9v17.4c0 2 2.4 3.2 4 2.4l34.1-19.8h40.8c7.9 0 14.7-6.3 14.7-14.7v-57.1c0-8-6.8-14.7-14.7-14.7z"/>
  <path fill="#272F3A" d="M70.6 79.235c-18.1.3-32.9-11.3-32.9-2.6 0 8.7 14.9 16.1 32.9 15.8 18.1 0 32.9-7.1 32.9-15.8 0-8.7-14.8 2.6-32.9 2.6zM154.5 22.935c3.9 0 6.8 3.2 6.8 7.1 0 3.9-3.2 6.8-7.1 6.8-3.9 0-10.7-3.2-10.7-7.1 0-3.9 7.1-6.8 11-6.8zM144.5 8.335c2.6-2.6 7.1-2.6 9.7.3 2.6 2.9 2.6 7.1-.3 9.7-2.6 2.6-10 5.2-12.6 2.6-2.6-2.9.3-10 3.2-12.6zM123.8 8.635c-1-3.6 1.3-7.4 4.8-8.4s7.4 1.3 8.4 4.8c1 3.6-.3 11.3-3.9 12.3-3.8 1-8.7-5.1-9.3-8.7z"/>
  <path stroke="#272F3A" stroke-linecap="round" stroke-miterlimit="10" stroke-width="6" d="M77.9 62.535c0-7.4 6.1-13.9 13.9-13.9 7.8 0 13.8 6.1 13.8 13.9M35.6 63.135c0-7.4 6.1-13.9 13.9-13.9 7.8 0 13.9 6.1 13.9 13.9"/>
</svg>
